<!DOCTYPE svg PUBLIC "-//W3C//DTD SVG 1.1//EN" "http://www.w3.org/Graphics/SVG/1.1/DTD/svg11.dtd">
<!-- Uploaded to: SVG Repo, www.svgrepo.com, Transformed by: SVG Repo Mixer Tools -->
<svg fill="#e3ad16" height="256px" width="256px" version="1.1" id="Layer_1" xmlns="http://www.w3.org/2000/svg" xmlns:xlink="http://www.w3.org/1999/xlink" viewBox="0 0 491.52 491.52" xml:space="preserve" stroke="#e3ad16" stroke-width="0.0049152">
<g id="SVGRepo_bgCarrier" stroke-width="0"/>
<g id="SVGRepo_tracerCarrier" stroke-linecap="round" stroke-linejoin="round"/>
<g id="SVGRepo_iconCarrier"> <g> <g> <path d="M460.8,230.545V215.04C460.8,96.465,364.335,0,245.76,0S30.72,96.465,30.72,215.04v15.505 C12.108,244.572,0,266.789,0,291.84c0,42.35,34.45,76.8,76.8,76.8h15.36v-153.6H76.8c-8.986,0-17.579,1.631-25.6,4.48v-4.48 c0-107.28,87.28-194.56,194.56-194.56s194.56,87.28,194.56,194.56v4.48c-8.021-2.849-16.614-4.48-25.6-4.48h-15.36v153.6h15.36 c5.259,0,10.396-0.536,15.36-1.548v62.988c0,11.295-9.185,20.48-20.48,20.48H295.073c-4.241-11.894-15.501-20.48-28.833-20.48 h-30.72c-16.94,0-30.72,13.78-30.72,30.72s13.78,30.72,30.72,30.72h30.72c13.332,0,24.593-8.586,28.833-20.48H409.6 c22.585,0,40.96-18.375,40.96-40.96v-70.366c24.332-12.9,40.96-38.467,40.96-67.874C491.52,266.789,479.412,244.572,460.8,230.545 z M71.68,235.75v112.18c-28.665-2.595-51.2-26.76-51.2-56.09C20.48,262.51,43.015,238.345,71.68,235.75z M266.24,471.04h-30.72 c-5.645,0-10.24-4.595-10.24-10.24c0-5.645,4.595-10.24,10.24-10.24h30.72c5.645,0,10.24,4.595,10.24,10.24 C276.48,466.445,271.885,471.04,266.24,471.04z M419.84,347.93V235.75c28.665,2.595,51.2,26.76,51.2,56.09 C471.04,321.17,448.505,345.335,419.84,347.93z"/> </g> </g> <g> <g> <path d="M378.88,219.265v-49.41l-31.035-5.17c-2.145-7.34-5.085-14.42-8.79-21.16L357.36,117.9l-34.93-34.94l-25.635,18.31 c-6.74-3.705-13.82-6.645-21.16-8.795l-5.17-31.035H221.06l-5.17,31.035c-7.34,2.15-14.42,5.09-21.16,8.795l-25.635-18.31 l-34.93,34.94l18.305,25.625c-3.705,6.74-6.645,13.82-8.795,21.16l-31.035,5.17v49.41l31.035,5.17 c2.15,7.34,5.09,14.415,8.795,21.16l-18.305,25.625l34.93,34.935l25.63-18.305c6.745,3.705,13.825,6.645,21.165,8.795l5.17,31.035 h49.405l5.17-31.035c7.34-2.15,14.42-5.09,21.165-8.795l25.63,18.305l34.93-34.935l-18.305-25.625 c3.705-6.745,6.645-13.825,8.79-21.16L378.88,219.265z M331.085,206.465l-1.495,6.755c-2.14,9.69-5.97,18.91-11.38,27.395 l-3.715,5.83l16.115,22.565l-10.4,10.395l-22.555-16.11l-5.83,3.715c-8.485,5.405-17.71,9.235-27.41,11.38l-6.75,1.5l-4.55,27.31 H238.41l-4.55-27.31l-6.75-1.5c-9.7-2.145-18.925-5.975-27.41-11.38l-5.83-3.715l-22.555,16.11l-10.4-10.395l16.115-22.565 l-3.715-5.83c-5.405-8.48-9.24-17.7-11.385-27.4l-1.5-6.75l-27.31-4.55v-14.71l27.31-4.55l1.5-6.75 c2.15-9.705,5.98-18.925,11.385-27.4l3.715-5.83l-16.115-22.565l10.4-10.4l22.555,16.115l5.83-3.715 c8.485-5.405,17.71-9.235,27.41-11.38l6.75-1.5l4.55-27.31h14.705l4.55,27.31l6.75,1.5c9.7,2.145,18.925,5.975,27.41,11.38 l5.83,3.715l22.555-16.115l10.4,10.4l-16.115,22.565l3.715,5.83c5.41,8.48,9.235,17.695,11.38,27.395l1.495,6.755l27.315,4.55 v14.71L331.085,206.465z"/> </g> </g> <g> <g> <path d="M245.76,136.235c-32.16,0-58.32,26.165-58.32,58.325c0,32.16,26.16,58.325,58.32,58.325 c32.16,0,58.325-26.165,58.325-58.325C304.085,162.4,277.92,136.235,245.76,136.235z M245.76,232.405 c-20.865,0-37.84-16.975-37.84-37.845s16.975-37.845,37.84-37.845c20.87,0,37.845,16.975,37.845,37.845 S266.63,232.405,245.76,232.405z"/> </g> </g> </g>
</svg>